<svg width="1410" height="720" viewBox="0 0 1410 720" fill="none" xmlns="http://www.w3.org/2000/svg">
<g clip-path="url(#clip0_1_29)">
<g clip-path="url(#clip1_1_29)">
<path d="M1005.01 915.757C963.702 910.005 938.715 894.89 930.665 870.757C927.079 860.014 927.449 848.352 927.809 837.078C928.243 823.411 928.649 810.501 922.64 799.084C915.997 786.454 901.799 777.232 880.45 771.683C841.573 761.584 800.401 764.426 760.574 767.178C747.498 768.08 733.978 769.016 720.739 769.48C700.482 770.186 681.805 769.349 664.769 766.976C623.87 761.28 592.38 746.738 570.781 723.502C562.57 714.674 555.691 704.423 549.038 694.523C539.273 679.981 529.171 664.933 514.894 654.663C489.87 636.647 455.661 636.361 432.115 637.715C377.764 640.84 323.927 654.426 271.864 667.568C240.614 675.457 208.297 683.612 176.113 689.452C151.849 693.853 131.092 694.861 113.648 692.431C92.4483 689.479 76.1548 681.462 64.4069 668.302C39.7951 640.748 43.6207 599.373 47.001 562.871L47.2656 559.977C51.9663 508.903 41.5882 475.232 16.4153 459.9C1.64892 450.911 -18.248 448.719 -44.4092 453.211C-87.4525 460.615 -127.944 479.302 -161.505 507.261L-163.149 505.286C-129.245 477.038 -88.3306 458.168 -44.8455 450.695C-18.0381 446.095 2.44039 448.393 17.7565 457.719C43.8297 473.599 54.6212 508.089 49.825 560.221L49.5603 563.115C46.2351 599.097 42.4583 639.874 66.3213 666.598C87.1038 689.867 122.865 696.516 175.652 686.932C207.747 681.106 240.019 672.962 271.224 665.085C323.404 651.916 377.366 638.295 431.952 635.16C455.89 633.782 490.685 634.089 516.384 652.589C531.029 663.134 541.261 678.364 551.156 693.098C557.75 702.92 564.574 713.077 572.648 721.765C602.705 754.106 652.498 769.304 720.628 766.923C733.824 766.461 747.326 765.532 760.376 764.626C800.405 761.859 841.795 758.996 881.072 769.203C903.155 774.94 917.898 784.592 924.899 797.885C931.221 809.908 930.787 823.766 930.356 837.165C930.001 848.215 929.645 859.645 933.077 869.952C941.408 894.919 969.037 909.875 1015.19 914.383C1085.73 921.285 1156.9 918.645 1226.74 906.535L1227.19 909.068C1157.13 921.217 1085.72 923.867 1014.95 916.943C1011.54 916.606 1008.21 916.221 1005 915.773L1005.01 915.757Z" fill="#7F7F7F"/>
</g>
<path d="M1860.66 434.22C1813.38 422.477 1786.21 401.859 1779.82 372.842C1776.97 359.924 1778.83 346.424 1780.63 333.373C1782.81 317.551 1784.86 302.606 1779.28 288.608C1773.11 273.124 1757.75 260.673 1733.63 251.612C1689.72 235.118 1641.55 233.373 1594.95 231.69C1579.65 231.136 1563.83 230.565 1548.4 229.482C1524.78 227.82 1503.19 224.559 1483.69 219.716C1436.88 208.088 1402.09 187.338 1379.85 157.702C1371.39 146.442 1364.66 133.692 1358.15 121.379C1348.58 103.29 1338.69 84.5742 1323.37 70.8964C1296.51 46.9039 1256.81 42.3796 1229.3 41.0676C1165.78 38.0367 1101.59 47.221 1039.5 56.1062C1002.24 61.4398 963.703 66.9524 925.605 69.7915C896.882 71.9302 872.649 70.5574 852.685 65.5984C828.423 59.5715 810.48 48.2624 798.447 31.5382C773.236 -3.48248 782.749 -51.0726 791.148 -93.0561L791.81 -96.3847C803.529 -155.132 795.6 -195.515 768.24 -216.407C752.19 -228.658 729.347 -233.641 698.41 -231.63C647.507 -228.304 598.186 -211.56 555.777 -183.197L554.11 -185.693C596.952 -214.35 646.787 -231.254 698.212 -234.606C729.913 -236.664 753.418 -231.485 770.065 -218.777C798.404 -197.137 806.712 -155.753 794.753 -95.7876L794.091 -92.459C785.82 -51.0724 776.436 -4.17123 800.879 29.7931C822.167 59.3675 862.89 71.4719 925.377 66.8086C963.371 63.9745 1001.85 58.4693 1039.06 53.1431C1101.29 44.2407 1165.63 35.032 1229.42 38.0794C1257.39 39.4125 1297.77 44.0328 1325.36 68.6694C1341.07 82.7128 1351.09 101.657 1360.78 119.983C1367.24 132.199 1373.92 144.833 1382.23 155.914C1413.18 197.161 1469.15 220.916 1548.58 226.499C1563.96 227.579 1579.76 228.155 1595.03 228.702C1641.86 230.392 1690.29 232.138 1734.66 248.807C1759.61 258.177 1775.55 271.194 1782.05 287.493C1787.92 302.232 1785.72 318.275 1783.58 333.786C1781.81 346.577 1780 359.81 1782.72 372.202C1789.34 402.223 1819.6 422.98 1872.66 433.872C1953.74 450.532 2036.74 456.187 2119.34 450.678L2119.54 453.676C2036.68 459.201 1953.41 453.53 1872.06 436.815C1868.14 436.006 1864.32 435.151 1860.64 434.237L1860.66 434.22Z" fill="#7F7F7F"/>
</g>
<defs>
<clipPath id="clip0_1_29">
<rect width="1410" height="720" rx="10" fill="white"/>
</clipPath>
<clipPath id="clip1_1_29">
<rect width="1432.75" height="322.448" fill="white" transform="translate(-152.525 429) rotate(7.92801)"/>
</clipPath>
</defs>
</svg>
