<svg width="1440" height="765" viewBox="0 0 1440 765" fill="none" xmlns="http://www.w3.org/2000/svg">
<path d="M-694 418.463L1187 45.5L1204.5 86.5L31.6628 1000L-694 418.463Z" fill="#E2E2E2"/>
<path d="M-547 453.963L1334 81L1351.5 122L178.663 1035.5L-547 453.963Z" fill="#E2E2E2"/>
<path d="M1333.31 60.4659C1321.61 69.8873 1310.53 79.9534 1300.25 90.9306L1302.2 90.7014C1288.6 77.8532 1274.32 65.6487 1262.26 51.2854L1261.93 53.5508C1270.43 47.3218 1278.57 40.5929 1286.36 33.5053L1284.29 33.4775C1289.63 36.7626 1295.24 39.663 1300.76 42.6187C1308.34 46.6698 1315.96 50.6618 1323.68 54.4074C1326.5 55.7696 1329.35 57.2285 1332.33 58.2313C1334.54 58.9731 1336.01 55.6342 1333.78 54.8867C1331.25 54.0352 1328.82 52.8742 1326.39 51.7411C1322.79 50.0528 1319.23 48.2794 1315.69 46.48C1308.16 42.6576 1300.67 38.7222 1293.26 34.6813C1291.82 33.8961 1290.37 33.0978 1288.93 32.2902C1288.38 31.9804 1287.81 31.6649 1287.27 31.3421C1287.06 31.2294 1286.86 31.1037 1286.66 30.991C1286.14 30.6981 1286.83 31.096 1286.38 30.8314C1285.79 30.473 1284.91 30.2688 1284.32 30.8036C1276.56 37.9341 1268.45 44.7059 1259.99 50.9741C1259.32 51.4713 1259.1 52.5692 1259.66 53.2394C1271.97 67.7453 1286.52 80.0592 1300.47 92.8949C1301.05 93.4314 1301.95 93.1845 1302.43 92.6657C1312.37 81.7569 1322.99 71.3092 1334.32 61.8315C1335.15 61.1422 1334.17 59.7971 1333.31 60.4788L1333.31 60.4659Z" fill="#0F0F0F"/>
<path d="M1364.58 110.123C1362.11 100.274 1359.38 90.5062 1356.15 80.8816C1354.46 75.8591 1352.64 70.8913 1350.68 65.9785C1349.62 63.3423 1348.52 60.7152 1347.37 58.112C1347.09 57.4807 1346.87 56.7198 1346.47 56.1583C1346.14 55.6976 1345.63 55.284 1345.22 54.8748C1344.14 53.776 1343.02 52.7199 1341.88 51.6876C1337.28 47.553 1332.24 43.8056 1327.09 40.3899C1325.48 39.3158 1323.79 41.0637 1324.74 42.689C1324.86 42.8978 1324.57 42.3276 1324.79 42.797C1324.9 43.0224 1325.03 43.2535 1325.15 43.4752C1325.45 44.0955 1325.75 44.7101 1326.05 45.3341C1326.89 47.1073 1327.71 48.8914 1328.53 50.6755C1330.75 55.5399 1332.91 60.4299 1335.03 65.3438C1340.06 76.9703 1344.36 88.8095 1348.7 100.707C1352.14 110.162 1355.58 119.607 1359.04 129.059C1359.63 130.665 1361.99 130.307 1362.27 128.702C1363.33 122.7 1364.37 116.704 1365.44 110.698C1365.82 108.572 1362.51 108.065 1362.13 110.182C1361.05 116.182 1360 122.181 1358.94 128.174L1362.17 127.818C1356.31 111.725 1350.62 95.5451 1344.52 79.5386C1340.82 69.8089 1336.53 60.265 1332.23 50.7822C1330.7 47.4078 1329.27 43.8854 1327.39 40.6815L1325.04 42.9805C1329.55 45.967 1333.99 49.1888 1338.12 52.6799C1339.13 53.5293 1340.11 54.3989 1341.08 55.2982C1342.05 56.1975 1343.35 57.1769 1344.01 58.3713C1345.36 60.8459 1346.33 63.6578 1347.4 66.2773C1351.23 75.5825 1354.41 85.1084 1357.53 94.6692C1359.29 100.058 1361.05 105.428 1362.99 110.748C1363.37 111.81 1364.83 111.151 1364.57 110.126L1364.58 110.123Z" fill="#0F0F0F"/>
<path d="M1299.63 94.9118C1300.89 97.6643 1302.46 100.257 1303.97 102.876C1305.58 105.642 1307.16 108.415 1308.8 111.166C1312.04 116.566 1315.31 121.933 1318.68 127.246L1318.5 125.717C1315 131.829 1311.01 137.631 1306.96 143.379C1304.93 146.259 1302.88 149.128 1300.85 152.018C1299.9 153.392 1298.95 154.766 1298 156.149C1297.48 156.898 1296.98 157.656 1296.48 158.41C1296.08 158.995 1295.46 159.67 1295.4 160.402C1295.3 161.632 1296.37 162.558 1297.58 162.146L1297.66 162.113C1298.59 161.802 1299.05 160.419 1298.36 159.657C1298.21 159.491 1298.06 159.325 1297.88 159.192L1298.14 161.451L1298.17 161.418L1295.63 161.387L1295.72 161.512C1297.02 163.183 1299.31 161.336 1298.29 159.579C1294.08 152.349 1289.96 145.048 1285.98 137.682C1283.4 132.916 1280.99 128.061 1278.35 123.33C1273.85 115.276 1269.18 107.313 1264.44 99.3988C1261.91 95.1806 1259.37 90.9567 1256.64 86.8728L1254.66 89.3674C1256.56 90.3505 1258.98 90.6479 1261.05 91.049C1264.68 91.7514 1268.34 92.3221 1272 92.8706C1279.6 94.0008 1287.23 94.9901 1294.85 95.9292C1296.55 96.1348 1298.24 96.3404 1299.93 96.5367C1302.03 96.7839 1302.54 93.5336 1300.43 93.2864C1287.97 91.8416 1275.47 90.3482 1263.14 88.102C1261.55 87.8117 1259.96 87.512 1258.39 87.1289C1258.09 87.0564 1257.77 86.9746 1257.46 86.8928C1257.38 86.8719 1257.31 86.8473 1257.22 86.8263C1256.93 86.7465 1257.52 86.9247 1257.08 86.7864C1256.71 86.6634 1256.33 86.544 1255.97 86.3598C1254.43 85.5609 1253.16 87.5845 1254 88.8544C1259.26 96.7164 1263.98 104.952 1268.73 113.119C1270.9 116.834 1273.05 120.556 1275.15 124.305C1275.72 125.298 1276.07 125.923 1276.68 127.059C1278.41 130.344 1280.11 133.649 1281.87 136.923C1286.32 145.21 1290.96 153.399 1295.73 161.509L1298.3 159.575L1298.21 159.45C1297.52 158.58 1296.37 158.657 1295.66 159.419L1295.63 159.452C1295.05 160.065 1295.23 161.253 1295.89 161.712L1295.8 161.578L1296.5 159.112L1296.41 159.145C1297.13 159.722 1297.87 160.304 1298.59 160.89C1298.54 161.456 1298.86 160.622 1299.02 160.389C1299.27 160.012 1299.52 159.635 1299.76 159.257C1300.22 158.562 1300.69 157.872 1301.16 157.183C1302.15 155.731 1303.16 154.294 1304.16 152.858C1306.14 150.027 1308.14 147.212 1310.11 144.385C1314.06 138.708 1317.92 132.961 1321.32 126.93C1321.59 126.447 1321.41 125.83 1321.14 125.401C1317.79 120.184 1314.48 114.93 1311.2 109.675C1309.6 107.112 1307.96 104.576 1306.35 102.02C1304.64 99.348 1303.02 96.6118 1301.07 94.1112C1300.52 93.4021 1299.24 94.0329 1299.64 94.9082L1299.63 94.9118Z" fill="#0F0F0F"/>
<path d="M1340.03 172.094C1341.34 170.55 1342.35 168.8 1343.42 167.081C1344.98 164.567 1346.48 162.031 1348.02 159.506C1351.67 153.449 1355.3 147.384 1359.15 141.457C1361.23 138.244 1363.38 135.069 1365.66 131.992C1366.38 131.01 1365.65 129.243 1364.29 129.511C1357.62 130.809 1350.9 131.881 1344.2 133.04C1341.16 133.567 1338.1 134.06 1335.01 133.842C1332.11 133.64 1329.21 133.188 1326.32 133.745C1325.42 133.916 1324.74 134.623 1324.83 135.587C1325.37 141.886 1323.58 147.993 1322.25 154.089C1320.83 160.643 1319.69 167.267 1319.05 173.954C1318.96 174.969 1319.79 176.211 1320.97 175.962C1327.09 174.687 1333.37 174.015 1339.58 173.36C1341.86 173.12 1341.48 169.571 1339.21 169.82C1333 170.476 1326.72 171.179 1320.61 172.472L1322.53 174.48C1323.15 167.64 1324.31 160.856 1325.74 154.146C1327.08 147.895 1328.76 141.682 1328.17 135.231L1326.68 137.073C1329.58 136.512 1332.43 137.037 1335.34 137.172C1338.46 137.312 1341.49 136.83 1344.54 136.277C1351.23 135.067 1357.95 133.932 1364.62 132.572L1363.25 130.092C1355.28 141.02 1348.47 152.924 1342.01 164.796C1340.85 166.928 1339.6 169.03 1338.62 171.254C1338.23 172.126 1339.43 172.817 1340.03 172.094Z" fill="#0F0F0F"/>
<path d="M1319.77 78.6352C1314.81 82.5818 1315.87 91.1009 1317.18 96.5612C1319.05 104.367 1322.92 112.172 1328.76 117.777C1331.35 120.263 1334.53 122.259 1338.07 123.004C1341.62 123.748 1345.9 123.109 1348.79 120.867C1352.21 118.214 1352.57 113.635 1351.81 109.679C1350.94 105.092 1349.02 100.753 1346.9 96.6082C1344.33 91.5726 1341.64 86.2671 1337.62 82.2289C1335.88 80.4929 1333.63 79.2049 1331.41 78.2198C1328.88 77.0953 1325.89 76.1852 1323.1 76.5632C1321.72 76.7496 1320.45 77.2375 1319.42 78.1911C1318.15 79.366 1319.18 81.8738 1321.01 81.046C1325.18 79.1835 1330.33 81.459 1333.73 83.9817C1337.7 86.9239 1340.18 92.139 1342.31 96.1022C1344.29 99.7821 1346.14 103.58 1347.37 107.588C1347.92 109.392 1348.31 111.259 1348.35 113.154C1348.39 114.441 1348.05 116.023 1347.44 116.897C1345.88 119.11 1342.29 119.821 1339.74 119.544C1336.86 119.227 1334.36 117.876 1332.05 115.967C1326.7 111.527 1323.11 104.784 1320.97 98.1894C1319.84 94.7209 1319.1 91.1212 1319.06 87.4663C1319.02 84.8589 1319.54 82.0321 1321.25 80.1598C1322.06 79.2587 1320.71 77.889 1319.76 78.6388L1319.77 78.6352Z" fill="#0F0F0F"/>
<path d="M1355.11 115.839C1354.38 118.857 1353.01 122.102 1350.43 123.995C1348.12 125.696 1345.13 126.132 1342.33 125.833C1334.63 124.999 1327.48 119.535 1322.84 113.614C1317.11 106.321 1314.16 96.8467 1315.12 87.5845C1315.52 83.6428 1316.62 79.5699 1319.49 76.6798C1321.12 75.0429 1323.26 73.879 1325.35 73.8642C1327.61 73.8468 1329.87 74.9473 1331.82 76.0068C1333.61 76.98 1335.28 78.1845 1336.81 79.5255C1340.71 82.9242 1343.63 87.2896 1345.44 92.1217C1346.25 94.2958 1349.61 92.9797 1348.79 90.8057C1345.51 81.944 1338.21 73.7331 1328.95 70.9453C1320.85 68.5083 1314.51 75.254 1312.55 82.5639C1309.83 92.7324 1312.56 104.319 1318.31 112.943C1323.28 120.402 1331.47 126.942 1340.51 128.332C1344.25 128.905 1348.22 128.493 1351.38 126.285C1354.86 123.857 1356.3 119.991 1356.4 115.882C1356.41 115.102 1355.27 115.188 1355.11 115.851L1355.11 115.839Z" fill="#0F0F0F"/>
<path d="M1402.29 36.4264C1406.34 34.2568 1410.6 32.5194 1414.49 30.0536L1412.57 29.7778C1417.32 37.5494 1421.86 45.4552 1426.09 53.5299C1428.18 57.5207 1430.2 61.5537 1432.14 65.6122C1432.64 66.6441 1433.13 67.6759 1433.6 68.7021C1433.73 68.9741 1434.17 69.6064 1434.16 69.8384C1434.15 70.1113 1433.7 70.5244 1433.53 70.6664C1433.03 71.1107 1432.33 71.2865 1431.74 71.5836C1430.84 72.0459 1429.95 72.5641 1429.1 73.1158C1427.42 74.1917 1425.95 75.6532 1424.19 76.5781C1422.25 77.6114 1420.3 78.6447 1418.37 79.7022C1414.58 81.7824 1410.83 83.9521 1407.19 86.2839C1405.74 87.2089 1404.02 88.0561 1402.96 89.4421C1402.57 89.9467 1402.27 90.5613 1401.81 91.0097C1401.21 91.5983 1400.36 92.0609 1399.65 92.5542C1396.01 95.0921 1392.27 97.4958 1388.49 99.8193C1379.92 105.095 1371.13 109.987 1362.51 115.159C1360.99 116.065 1362.65 118.261 1364.16 117.358C1372.09 112.597 1380.18 108.068 1388.09 103.263C1392.1 100.83 1396.06 98.3291 1399.93 95.6905C1401.38 94.7024 1403.14 93.7867 1404.21 92.3748C1404.61 91.8536 1404.93 91.213 1405.4 90.748C1406.04 90.1225 1407.06 89.6256 1407.82 89.1234C1411.64 86.633 1415.57 84.3271 1419.56 82.1349C1421.64 80.9966 1423.73 79.8955 1425.83 78.7722C1427.58 77.8379 1429.06 76.3728 1430.73 75.2876C1433.05 73.798 1438.19 72.3278 1436.56 68.5628C1434.71 64.2616 1432.52 60.0697 1430.4 55.9097C1425.56 46.4328 1420.29 37.178 1414.75 28.1053C1414.34 27.4398 1413.4 27.4637 1412.82 27.8296C1409.14 30.1668 1405.1 31.7979 1401.26 33.8425C1399.73 34.6611 1400.71 37.2281 1402.27 36.4022L1402.29 36.4264Z" fill="#0F0F0F"/>
<path d="M1349.73 65.031C1364.76 56.622 1379.9 48.4106 1395.08 40.2792C1396.61 39.4606 1395.63 36.8936 1394.07 37.7195C1378.67 45.9702 1363.33 54.3067 1348.08 62.8313C1346.55 63.6907 1348.2 65.8775 1349.73 65.031Z" fill="#0F0F0F"/>
<path d="M1330.14 8.47801C1333.87 17.3797 1338.43 25.9021 1342.96 34.4169C1345.21 38.6464 1347.41 42.8941 1349.72 47.0924C1352.02 51.2906 1354.02 55.2641 1357.02 58.7703C1358.44 60.4375 1361.19 58.4027 1359.76 56.7169C1356.83 53.2483 1354.72 49.2016 1352.52 45.2511C1350.18 41.0452 1347.78 36.8612 1345.48 32.6407C1340.92 24.2798 1336.56 15.7976 1331.59 7.67005C1331.1 6.85361 1329.79 7.61603 1330.15 8.47435L1330.14 8.47801Z" fill="#0F0F0F"/>
<path d="M1337.32 10.5769L1337.4 10.5886C1337.64 10.6328 1337.95 10.4806 1338.04 10.2416C1338.22 9.75066 1338.06 9.30023 1337.58 9.07813C1337.34 8.96708 1337 8.99464 1336.79 9.17346C1335.46 10.3202 1337.21 12.5112 1337.81 13.696C1338.85 15.788 1339.89 17.8929 1340.91 20.0088C1342.96 24.2426 1344.95 28.4983 1347.01 32.7191C1351.1 41.1142 1355.5 49.3979 1361.21 56.8245C1362.44 58.4162 1364.95 56.549 1363.72 54.948C1358.38 47.9898 1354.15 40.2828 1350.18 32.4827C1348.19 28.5687 1346.27 24.6069 1344.25 20.7038C1343.27 18.7924 1342.27 16.8846 1341.22 14.9987C1340.72 14.1191 1340.21 13.2338 1339.71 12.3579C1339.44 11.8845 1339.15 11.4278 1338.86 10.9617C1338.69 10.7044 1338.52 10.4378 1338.36 10.1805C1338.1 9.51031 1337.65 9.56512 1337.02 10.3615L1337.03 9.63919L1336.98 9.70201C1336.73 10.0347 1336.92 10.5001 1337.32 10.5769Z" fill="#0F0F0F"/>
<path d="M1331.6 9.25606C1332.8 7.67954 1333.91 6.13593 1335.26 4.68109C1336.76 3.06371 1338.27 1.4706 1339.83 -0.0776238C1342.86 -3.0614 1346.09 -5.85635 1349.4 -8.51899C1356.15 -13.9659 1363.32 -18.8643 1370.48 -23.7498C1372.28 -24.9845 1370.24 -27.7178 1368.44 -26.4738C1361 -21.3264 1353.54 -16.1754 1346.56 -10.403C1343.13 -7.56289 1339.83 -4.56783 1336.71 -1.38595C1335.12 0.223439 1333.59 1.87771 1332.18 3.6367C1330.99 5.11482 1329.82 6.81965 1329.99 8.79286C1330.06 9.57137 1331.13 9.8733 1331.59 9.25971L1331.6 9.25606Z" fill="#0F0F0F"/>
<path d="M1337.37 10.5679C1342.88 6.5894 1348.03 2.09434 1353.36 -2.14706C1358.69 -6.40144 1364.11 -10.5365 1369.74 -14.3823C1371.62 -15.6685 1369.45 -18.6069 1367.62 -17.2219C1362.12 -13.054 1356.63 -8.87676 1351.28 -4.51103C1345.94 -0.145306 1340.7 4.23406 1336.1 9.26368C1335.38 10.0521 1336.55 11.1718 1337.38 10.5772L1337.37 10.5679Z" fill="#0F0F0F"/>
<path d="M1367.89 -15.4913C1369.7 -10.8839 1371.94 -6.46694 1374.14 -2.03537C1376.34 2.39621 1378.53 6.83145 1380.74 11.263C1385.14 20.1169 1389.4 29.0571 1393.95 37.8302C1395.2 40.241 1396.51 42.6298 1397.94 44.9359C1399.15 46.8859 1400.56 48.579 1402.57 49.7466C1403.23 50.1296 1404.07 49.6391 1404.37 49.0374C1405.3 47.1361 1404.68 45.1007 1403.98 43.2411C1403 40.6928 1401.94 38.1737 1400.87 35.6712C1398.73 30.6569 1396.5 25.6792 1394.17 20.7509C1389.5 10.8816 1384.55 1.14777 1379.56 -8.55843C1376.75 -14.0096 1373.98 -19.4753 1371.22 -24.9447C1370.26 -26.8542 1367.12 -25.6129 1368.12 -23.7274C1377.95 -5.15535 1387.72 13.4832 1396.33 32.6641C1397.55 35.3774 1398.74 38.1109 1399.9 40.8461C1400.43 42.1196 1400.99 43.3915 1401.52 44.6686C1401.95 45.7224 1402.42 46.8377 1401.89 47.9392L1403.69 47.23C1401.95 46.2293 1400.83 44.4229 1399.8 42.7451C1398.53 40.6834 1397.36 38.5535 1396.25 36.411C1394.05 32.1726 1391.96 27.8717 1389.82 23.5947C1385.54 15.0387 1381.24 6.48998 1376.94 -2.07167C1374.53 -6.87225 1372.18 -11.73 1369.38 -16.3139C1368.87 -17.1453 1367.57 -16.3642 1367.91 -15.4893L1367.89 -15.4913Z" fill="#0F0F0F"/>
<path d="M1365.26 80.3297C1374.77 76.7458 1383.91 72.3518 1392.75 67.3655C1397.15 64.8861 1401.44 62.2 1405.65 59.4074C1407.79 57.9872 1409.89 56.5092 1411.97 55.0032C1414.05 53.4973 1416.12 52.1063 1417.77 50.243C1418.45 49.4728 1417.49 48.1169 1416.54 48.5881C1414.3 49.7032 1412.33 51.3361 1410.3 52.7793C1408.27 54.2224 1406.35 55.5326 1404.36 56.8757C1400.17 59.7018 1395.88 62.3843 1391.53 64.9438C1382.85 70.0611 1373.83 74.6136 1364.63 78.751C1363.64 79.196 1364.23 80.7261 1365.26 80.3333L1365.26 80.3297Z" fill="#0F0F0F"/>
<path d="M1373.2 85.8724C1380.42 81.2306 1387.81 76.8052 1395.08 72.2306C1398.71 69.9432 1402.36 67.6932 1406.01 65.4244C1407.83 64.2901 1409.65 63.1557 1411.47 62.0307C1413.19 60.9718 1415.15 60.0073 1416.44 58.4165C1416.87 57.8807 1416.41 56.8788 1415.68 57.0283C1413.72 57.4413 1412.03 58.6545 1410.35 59.6894C1408.53 60.8145 1406.7 61.9395 1404.88 63.0739C1401.17 65.3811 1397.49 67.7499 1393.81 70.1057C1386.53 74.7917 1379.46 79.7612 1372.31 84.6523C1371.5 85.208 1372.4 86.3892 1373.22 85.865L1373.2 85.8724Z" fill="#0F0F0F"/>
<path d="M1279.94 120.342C1282.74 126.247 1285.77 132.059 1289.17 137.644C1290.62 140.028 1292 142.765 1293.98 144.757C1294.66 145.437 1295.73 146.328 1296.75 146.356C1297.38 146.377 1297.98 146.076 1297.87 145.37C1297.81 145.015 1297.42 144.935 1297.18 145.169C1296.53 145.807 1294.63 143.751 1294.3 143.353C1293.59 142.517 1293 141.575 1292.41 140.66C1290.98 138.489 1289.61 136.278 1288.27 134.056C1285.51 129.499 1282.96 124.829 1280.62 120.053C1280.41 119.64 1279.74 119.894 1279.94 120.32L1279.94 120.342Z" fill="#0F0F0F"/>
<path d="M1285.81 123.096C1287.52 127.214 1289.51 131.214 1291.81 135.039C1292.9 136.865 1294.04 138.709 1295.36 140.381C1296.33 141.6 1297.63 143.229 1299.21 143.586C1299.56 143.663 1299.84 143.189 1299.61 142.913C1299.09 142.291 1298.36 141.867 1297.76 141.306C1297.03 140.626 1296.4 139.855 1295.8 139.047C1294.64 137.483 1293.59 135.822 1292.58 134.169C1290.32 130.509 1288.32 126.707 1286.59 122.779C1286.37 122.284 1285.59 122.582 1285.81 123.087L1285.81 123.096Z" fill="#0F0F0F"/>
<path d="M1293.62 129.817C1294.53 131.672 1295.51 133.498 1296.58 135.26C1297.12 136.143 1297.68 137.01 1298.26 137.866C1298.81 138.661 1299.37 139.74 1300.19 140.28C1300.5 140.488 1300.9 140.213 1300.78 139.843C1300.49 138.978 1299.72 138.195 1299.2 137.456C1298.6 136.617 1298.02 135.757 1297.46 134.894C1296.34 133.154 1295.3 131.369 1294.36 129.525C1294.13 129.068 1293.38 129.351 1293.61 129.821L1293.62 129.817Z" fill="#0F0F0F"/>
<path d="M1295.73 126.289C1296.84 128.121 1297.93 129.97 1299 131.83C1299.52 132.762 1300.05 133.694 1300.58 134.626C1300.84 135.093 1301.09 135.561 1301.35 136.029C1301.59 136.463 1301.78 136.902 1302.16 137.228C1302.39 137.437 1302.81 137.21 1302.75 136.899C1302.61 135.988 1301.87 135.083 1301.42 134.293C1300.87 133.328 1300.31 132.366 1299.75 131.417C1298.63 129.544 1297.49 127.682 1296.33 125.84C1296.08 125.435 1295.5 125.877 1295.74 126.285L1295.73 126.289Z" fill="#0F0F0F"/>
<path d="M1327.04 166.947C1328.93 166.842 1330.8 166.696 1332.67 166.477C1333.61 166.368 1334.54 166.249 1335.47 166.109C1335.94 166.034 1336.4 165.968 1336.86 165.883C1337.27 165.799 1337.69 165.751 1338.03 165.512C1338.32 165.313 1338.15 164.916 1337.86 164.837C1337.44 164.732 1336.98 164.852 1336.56 164.918C1336.1 164.993 1335.63 165.068 1335.17 165.143C1334.27 165.282 1333.37 165.418 1332.47 165.535C1330.63 165.774 1328.8 165.968 1326.96 166.1C1326.41 166.145 1326.51 166.975 1327.04 166.947Z" fill="#0F0F0F"/>
<path d="M1329.03 164.189C1330.37 164.03 1331.71 163.868 1333.05 163.718C1333.71 163.643 1334.37 163.567 1335.02 163.482C1335.67 163.397 1336.35 163.377 1336.99 163.182C1337.27 163.091 1337.23 162.602 1336.92 162.584C1336.28 162.545 1335.65 162.676 1335.02 162.75C1334.34 162.837 1333.66 162.92 1332.97 163.007C1331.63 163.178 1330.3 163.337 1328.96 163.509C1328.52 163.564 1328.59 164.244 1329.03 164.189Z" fill="#0F0F0F"/>
<path d="M1331.86 161.874C1332.75 161.666 1333.65 161.527 1334.55 161.451C1335 161.415 1335.45 161.401 1335.89 161.409C1336.34 161.418 1336.82 161.465 1337.27 161.34C1337.6 161.244 1337.55 160.79 1337.28 160.658C1336.85 160.453 1336.36 160.463 1335.89 160.466C1335.42 160.468 1334.93 160.488 1334.45 160.535C1333.5 160.629 1332.58 160.807 1331.67 161.08C1331.24 161.207 1331.42 161.964 1331.86 161.865L1331.86 161.874Z" fill="#0F0F0F"/>
<path d="M1270.13 52.3412C1271.71 50.4532 1273.36 48.6028 1275.03 46.8046C1275.87 45.9056 1276.73 45.0121 1277.59 44.1336C1278 43.7258 1278.4 43.3216 1278.81 42.9138C1279.22 42.506 1279.75 42.0951 1280 41.5434C1280.16 41.2156 1279.79 40.842 1279.46 40.9829C1278.9 41.2245 1278.48 41.7214 1278.05 42.1402C1277.66 42.5184 1277.28 42.9023 1276.9 43.2899C1276.01 44.198 1275.13 45.1247 1274.27 46.0626C1272.59 47.9276 1270.99 49.8415 1269.44 51.8169C1269.1 52.2493 1269.76 52.766 1270.11 52.3392L1270.13 52.3412Z" fill="#0F0F0F"/>
<path d="M1271.21 56.0302C1271.1 56.4826 1271.44 56.9304 1271.92 56.9241C1272.57 56.9152 1272.94 56.0949 1273.26 55.6438C1274.32 54.2205 1275.44 52.8534 1276.64 51.5462C1277.83 50.2389 1279.09 48.9951 1280.4 47.8112C1281.03 47.2525 1281.67 46.7124 1282.32 46.1779C1282.97 45.6434 1283.8 45.1343 1284.29 44.4372C1284.53 44.0952 1284.21 43.6624 1283.81 43.7973C1283.16 44.0123 1282.6 44.4973 1282.07 44.9117C1281.48 45.3704 1280.9 45.844 1280.34 46.3326C1279.28 47.2526 1278.27 48.2212 1277.28 49.2197C1276.3 50.2181 1275.31 51.3373 1274.39 52.4494C1273.92 53.0314 1273.47 53.6191 1273.01 54.2161C1272.79 54.5192 1272.57 54.8094 1272.35 55.1218C1272.24 55.2734 1272.13 55.4213 1272.02 55.5822C1271.75 55.8182 1271.82 56.0173 1272.23 56.2111C1272.38 55.5603 1271.37 55.4109 1271.2 56.0561L1271.21 56.0302Z" fill="#0F0F0F"/>
<path d="M1276.93 58.757C1278.17 57.5429 1279.4 56.3287 1280.63 55.1052C1281.85 53.8817 1283.23 52.7613 1284.19 51.3523C1284.4 51.0435 1284.05 50.6661 1283.74 50.8852C1282.32 51.8494 1281.16 53.2404 1279.96 54.4529C1278.76 55.6655 1277.48 56.9425 1276.23 58.1955C1275.82 58.6034 1276.53 59.1519 1276.93 58.757Z" fill="#0F0F0F"/>
<path d="M1281.9 59.9746C1282.61 59.6968 1283.29 59.3538 1283.91 58.9194C1284.52 58.485 1285.11 57.9948 1285.55 57.3735C1285.73 57.1073 1285.39 56.6818 1285.12 56.94C1284.6 57.4233 1284.08 57.9159 1283.51 58.3357C1282.93 58.7555 1282.3 59.0765 1281.64 59.3268C1281.22 59.4913 1281.48 60.1428 1281.89 59.9783L1281.9 59.9746Z" fill="#0F0F0F"/>
<path d="M1348.78 72.763C1350.47 78.7383 1352.23 84.6879 1354.18 90.5831C1355.15 93.4898 1356.15 96.3726 1357.18 99.2537C1357.69 100.655 1358.2 102.057 1358.72 103.442C1359.3 104.966 1359.77 106.616 1360.56 108.047C1360.79 108.463 1361.61 108.397 1361.48 107.828C1360.78 104.942 1359.39 102.105 1358.37 99.3149C1357.29 96.3667 1356.24 93.4038 1355.22 90.43C1353.19 84.4823 1351.21 78.5219 1349.43 72.4978C1349.29 72.055 1348.65 72.3202 1348.76 72.7574L1348.78 72.763Z" fill="#0F0F0F"/>
<path d="M1348.27 80.979C1349.65 84.3229 1350.97 87.7053 1352.3 91.071C1353.64 94.4368 1354.77 97.9332 1356.45 101.123C1356.65 101.505 1357.18 101.296 1357.07 100.878C1356.14 97.4088 1354.54 94.0507 1353.15 90.7384C1351.76 87.4261 1350.28 84.0779 1348.83 80.756C1348.68 80.3967 1348.11 80.6196 1348.27 80.979Z" fill="#0F0F0F"/>
<path d="M1348.32 88.2531C1349.36 90.2187 1350.35 92.2156 1351.28 94.2344C1352.21 96.2532 1352.96 98.3674 1353.98 100.34C1354.16 100.679 1354.64 100.489 1354.53 100.125C1353.93 97.9965 1352.89 95.9641 1351.96 93.9675C1351.03 91.971 1350 89.9665 1348.93 88.0118C1348.74 87.6484 1348.12 87.8804 1348.32 88.2531Z" fill="#0F0F0F"/>
<path d="M1322.6 96.0993C1323.46 99.9932 1325.16 103.697 1327.7 106.794C1328.76 108.097 1329.98 109.306 1331.4 110.197C1332.82 111.088 1334.6 111.957 1336.22 111.289C1336.95 110.991 1336.9 110.035 1336.25 109.689C1334.99 109.033 1333.59 108.876 1332.37 108.084C1331.09 107.255 1329.98 106.155 1329 104.994C1326.7 102.286 1325.11 99.1308 1324.24 95.6899C1324.01 94.7711 1322.4 95.1565 1322.6 96.0863L1322.6 96.0993Z" fill="#0F0F0F"/>
<path d="M1361.33 97.9242C1361.68 96.8864 1361.93 95.822 1362.24 94.7766C1362.55 93.7312 1362.9 92.7437 1363.28 91.7451C1363.66 90.7466 1364.1 89.767 1364.56 88.8024C1364.8 88.3118 1365.03 87.8119 1365.29 87.3233C1365.55 86.8346 1365.84 86.3666 1366.03 85.8534C1366.16 85.5014 1365.71 85.2145 1365.45 85.51C1364.77 86.3024 1364.31 87.3654 1363.84 88.3021C1363.34 89.3036 1362.9 90.3463 1362.5 91.3967C1361.73 93.4067 1360.94 95.5856 1360.73 97.7439C1360.7 98.078 1361.2 98.2762 1361.32 97.9185L1361.33 97.9242Z" fill="#0F0F0F"/>
<path d="M1362.35 103.058C1362.05 103.884 1361.78 104.735 1361.42 105.538C1361.22 106.005 1361.92 106.301 1362.14 105.849C1363.51 103.098 1364.66 100.197 1365.88 97.3843C1367.11 94.5712 1368.53 91.7668 1369.47 88.8423C1369.6 88.4142 1369.05 88.1675 1368.83 88.5654C1367.34 91.2468 1366.26 94.1945 1365.05 97.0133C1363.84 99.832 1362.5 102.644 1361.42 105.538L1362.14 105.849C1362.39 105.01 1362.72 104.182 1363.01 103.346C1363.17 102.897 1362.5 102.604 1362.34 103.052L1362.35 103.058Z" fill="#0F0F0F"/>
<path d="M1364.11 110.575C1366.09 106.307 1368.07 102.048 1370.05 97.78C1370.33 97.1728 1370.58 96.5485 1370.87 95.9412C1371.04 95.5969 1370.49 95.3595 1370.33 95.7038C1368.35 99.9625 1366.32 104.208 1364.33 108.47C1364.04 109.077 1363.76 109.69 1363.48 110.298C1363.28 110.707 1363.93 110.99 1364.12 110.58L1364.11 110.575Z" fill="#0F0F0F"/>
<path d="M1367.34 114.604C1368.91 111.377 1370.48 108.16 1372.07 104.944C1373.67 101.728 1375.34 98.5466 1376.79 95.2725C1376.95 94.9188 1376.42 94.7057 1376.24 95.0351C1374.55 98.1925 1373.08 101.478 1371.52 104.701C1369.96 107.924 1368.39 111.151 1366.81 114.372C1366.64 114.707 1367.18 114.945 1367.34 114.604Z" fill="#0F0F0F"/>
<path d="M1376.74 108.613C1378.59 105.349 1380.1 101.919 1381.57 98.4633C1383.04 95.0073 1384.63 91.6338 1386.32 88.274C1386.47 87.9648 1385.98 87.6646 1385.8 87.9624C1383.82 91.1125 1382.42 94.6283 1380.98 98.0417C1379.54 101.455 1378.03 105.043 1376.18 108.37C1375.98 108.716 1376.55 108.955 1376.74 108.613Z" fill="#0F0F0F"/>
<path d="M1384.76 102.368C1385.67 100.357 1386.58 98.3459 1387.49 96.3442C1388.4 94.3425 1389.43 92.3601 1390.14 90.2866C1390.27 89.903 1389.76 89.6919 1389.57 90.0379C1388.5 91.9588 1387.71 94.0559 1386.83 96.0653C1385.95 98.0746 1385.07 100.11 1384.18 102.123C1384.02 102.499 1384.59 102.748 1384.75 102.372L1384.76 102.368Z" fill="#0F0F0F"/>
<path d="M1389.81 99.8797C1390.53 98.4487 1391.2 97.0008 1391.87 95.5472C1392.19 94.8399 1392.52 94.1325 1392.83 93.4288C1393.17 92.6826 1393.54 91.9384 1393.79 91.1526C1393.88 90.8245 1393.43 90.4558 1393.21 90.8091C1392.81 91.4826 1392.5 92.2049 1392.18 92.9215C1391.86 93.6382 1391.52 94.4289 1391.19 95.1808C1390.53 96.6623 1389.89 98.1495 1389.3 99.6629C1389.16 100.006 1389.65 100.22 1389.81 99.889L1389.81 99.8797Z" fill="#0F0F0F"/>
<path d="M1393.78 97.6668C1394.43 96.5493 1395.05 95.4149 1395.67 94.2711C1396.28 93.1273 1396.82 92.0889 1397.36 90.9837C1397.9 89.8785 1398.53 88.7181 1398.88 87.5095C1398.97 87.1591 1398.46 87.0816 1398.31 87.3462C1397.68 88.462 1397.21 89.6773 1396.66 90.8307C1396.13 91.9193 1395.58 92.993 1395.02 94.0609C1394.43 95.1881 1393.83 96.3152 1393.2 97.4218C1393 97.7678 1393.57 98.0072 1393.77 97.6705L1393.78 97.6668Z" fill="#0F0F0F"/>
<path d="M1396.65 96.9365C1396.84 96.5051 1397.02 96.0587 1397.23 95.6329C1397.44 95.2071 1397.66 94.7461 1397.87 94.298C1398.29 93.4241 1398.69 92.5446 1399.09 91.6594C1399.23 91.3224 1398.74 91.1205 1398.57 91.4333C1398.11 92.2902 1397.68 93.1585 1397.25 94.023C1397.05 94.4488 1396.83 94.8783 1396.62 95.3041C1396.41 95.7299 1396.16 96.174 1395.93 96.6164C1395.71 97.0588 1396.44 97.3939 1396.66 96.9329L1396.65 96.9365Z" fill="#0F0F0F"/>
<path d="M1396.04 97.551C1396.98 97.1818 1396.41 95.7205 1395.47 96.0897C1394.53 96.4589 1395.1 97.9202 1396.04 97.551Z" fill="#0F0F0F"/>
<path d="M1363.63 107.94C1364.34 106.262 1365.06 104.603 1365.76 102.923C1366.45 101.243 1367.19 99.5764 1367.81 97.8626C1367.94 97.4883 1367.41 97.2472 1367.24 97.6139C1366.46 99.2506 1365.8 100.96 1365.11 102.64C1364.42 104.32 1363.75 106.012 1363.07 107.697C1362.92 108.056 1363.46 108.294 1363.61 107.935L1363.63 107.94Z" fill="#0F0F0F"/>
<path d="M1361.42 100.846C1362.31 98.766 1363.15 96.6729 1364.01 94.5761C1364.86 92.4793 1365.76 90.4051 1366.53 88.2781C1366.65 87.9391 1366.16 87.715 1366.01 88.052C1365.09 90.1112 1364.29 92.2306 1363.45 94.333C1362.61 96.4355 1361.75 98.5229 1360.95 100.642C1360.83 100.959 1361.3 101.163 1361.43 100.851L1361.42 100.846Z" fill="#0F0F0F"/>
<path d="M1360.38 94.6016C1360.86 92.3725 1361.44 90.1571 1362.25 88.0247C1363.06 85.8924 1364.06 83.8987 1365.12 81.9109C1365.28 81.6111 1364.8 81.3166 1364.6 81.5994C1363.29 83.5113 1362.3 85.6091 1361.49 87.786C1360.68 89.9629 1360.09 92.2042 1359.8 94.5181C1359.76 94.8911 1360.29 94.9706 1360.38 94.6053L1360.38 94.6016Z" fill="#0F0F0F"/>
<path d="M1366.19 113.724C1368 108.274 1370.34 103.056 1372.92 97.9205C1373.08 97.5984 1372.58 97.3965 1372.41 97.7C1369.57 102.685 1367.41 108.042 1365.72 113.511C1365.62 113.83 1366.09 114.043 1366.2 113.72L1366.19 113.724Z" fill="#0F0F0F"/>
<path d="M1372.62 111.207C1373.48 109.044 1374.43 106.929 1375.38 104.805C1376.33 102.681 1377.34 100.576 1378.09 98.3707C1378.2 98.0483 1377.74 97.8319 1377.6 98.156C1376.67 100.291 1375.77 102.429 1374.83 104.562C1373.88 106.695 1372.93 108.81 1372.12 110.987C1372 111.313 1372.49 111.537 1372.62 111.207Z" fill="#0F0F0F"/>
<path d="M1380.54 105.658C1381.7 103.732 1382.61 101.645 1383.6 99.6234C1384.59 97.6018 1385.74 95.5366 1386.56 93.4006C1386.71 93.0191 1386.19 92.8152 1385.99 93.1519C1384.83 95.0871 1383.95 97.2172 1382.98 99.2444C1382 101.272 1380.91 103.289 1380.11 105.399C1380.01 105.664 1380.39 105.932 1380.55 105.664L1380.54 105.658Z" fill="#0F0F0F"/>
<path d="M1186.65 42.1405C1177.62 49.4039 1169.08 57.1642 1161.16 65.627L1162.66 65.4503C1152.18 55.5451 1141.17 46.1361 1131.87 35.0629L1131.62 36.8093C1138.17 32.0072 1144.44 26.8196 1150.45 21.3555L1148.86 21.334C1152.97 23.8666 1157.3 26.1027 1161.56 28.3813C1167.4 31.5045 1173.27 34.5821 1179.22 37.4698C1181.4 38.5199 1183.6 39.6446 1185.89 40.4178C1187.6 40.9897 1188.73 38.4155 1187.01 37.8393C1185.06 37.1828 1183.18 36.2877 1181.31 35.4142C1178.53 34.1126 1175.79 32.7454 1173.06 31.3582C1167.26 28.4113 1161.49 25.3773 1155.77 22.2621C1154.66 21.6567 1153.55 21.0413 1152.43 20.4187C1152.01 20.1798 1151.57 19.9366 1151.15 19.6877C1150.99 19.6008 1150.84 19.5039 1150.68 19.4171C1150.28 19.1912 1150.81 19.498 1150.47 19.294C1150.01 19.0177 1149.33 18.8603 1148.88 19.2726C1142.89 24.7698 1136.64 29.9905 1130.12 34.8229C1129.61 35.2062 1129.43 36.0526 1129.87 36.5693C1139.35 47.7525 1150.57 57.2458 1161.33 67.1413C1161.78 67.555 1162.47 67.3647 1162.84 66.9647C1170.5 58.5546 1178.69 50.5 1187.43 43.1933C1188.06 42.6619 1187.31 41.6249 1186.64 42.1505L1186.65 42.1405Z" fill="#0F0F0F"/>
<path d="M1210.75 80.423C1208.85 72.8306 1206.74 65.2999 1204.25 57.8799C1202.95 54.0078 1201.55 50.1779 1200.04 46.3904C1199.22 44.3581 1198.37 42.3327 1197.49 40.3258C1197.27 39.8391 1197.1 39.2525 1196.79 38.8196C1196.53 38.4644 1196.14 38.1456 1195.83 37.8301C1194.99 36.983 1194.13 36.1688 1193.25 35.373C1189.7 32.1854 1185.82 29.2964 1181.85 26.6631C1180.61 25.835 1179.31 27.1826 1180.04 28.4356C1180.14 28.5965 1179.9 28.157 1180.08 28.5189C1180.16 28.6926 1180.26 28.8707 1180.35 29.0417C1180.59 29.5199 1180.82 29.9938 1181.05 30.4748C1181.7 31.8418 1182.33 33.2173 1182.96 34.5927C1184.68 38.3429 1186.34 42.1128 1187.98 45.9011C1191.85 54.8645 1195.16 63.9918 1198.51 73.1638C1201.16 80.4531 1203.82 87.7353 1206.48 95.0218C1206.93 96.2601 1208.76 95.9838 1208.97 94.7468C1209.79 90.1191 1210.59 85.4971 1211.42 80.8666C1211.71 79.2278 1209.16 78.8368 1208.87 80.4684C1208.03 85.0945 1207.22 89.7194 1206.4 94.3398L1208.9 94.0648C1204.38 81.6586 1199.99 69.1846 1195.29 56.8445C1192.43 49.3435 1189.13 41.9857 1185.81 34.675C1184.63 32.0735 1183.53 29.358 1182.08 26.8879L1180.27 28.6603C1183.75 30.9627 1187.17 33.4466 1190.35 36.1379C1191.13 36.7928 1191.89 37.4633 1192.64 38.1565C1193.38 38.8498 1194.39 39.6049 1194.89 40.5257C1195.94 42.4335 1196.68 44.6013 1197.51 46.6208C1200.46 53.7946 1202.91 61.1385 1205.32 68.5093C1206.68 72.6638 1208.03 76.8039 1209.53 80.9049C1209.82 81.7242 1210.95 81.2159 1210.75 80.4258L1210.75 80.423Z" fill="#0F0F0F"/>
<path d="M1160.68 68.6963C1161.65 70.8183 1162.86 72.8173 1164.03 74.8361C1165.27 76.9683 1166.49 79.1063 1167.75 81.2273C1170.25 85.3903 1172.77 89.5278 1175.37 93.6242L1175.23 92.4451C1172.53 97.1569 1169.45 101.63 1166.33 106.061C1164.77 108.282 1163.18 110.494 1161.62 112.722C1160.89 113.781 1160.15 114.84 1159.42 115.906C1159.03 116.484 1158.63 117.068 1158.25 117.65C1157.95 118.1 1157.46 118.621 1157.42 119.185C1157.35 120.134 1158.16 120.848 1159.1 120.53L1159.16 120.505C1159.88 120.264 1160.23 119.199 1159.7 118.611C1159.59 118.483 1159.47 118.355 1159.33 118.252L1159.54 119.994L1159.56 119.969L1157.59 119.945L1157.67 120.041C1158.67 121.329 1160.44 119.906 1159.65 118.551C1156.4 112.977 1153.23 107.348 1150.16 101.67C1148.17 97.995 1146.31 94.2525 1144.27 90.6048C1140.81 84.3956 1137.2 78.2571 1133.55 72.1555C1131.6 68.9035 1129.64 65.6472 1127.54 62.4987L1126.01 64.4218C1127.48 65.1798 1129.34 65.409 1130.94 65.7183C1133.73 66.2598 1136.56 66.6998 1139.38 67.1226C1145.24 67.994 1151.12 68.7567 1157 69.4807C1158.3 69.6391 1159.61 69.7976 1160.91 69.949C1162.53 70.1395 1162.92 67.6338 1161.3 67.4432C1151.69 66.3293 1142.06 65.178 1132.55 63.4463C1131.32 63.2225 1130.1 62.9915 1128.89 62.6961C1128.65 62.6402 1128.41 62.5772 1128.17 62.5141C1128.11 62.498 1128.05 62.479 1127.99 62.4628C1127.76 62.4013 1128.21 62.5387 1127.87 62.4321C1127.59 62.3372 1127.3 62.2452 1127.03 62.1032C1125.83 61.4873 1124.85 63.0474 1125.5 64.0264C1129.56 70.0875 1133.19 76.4367 1136.86 82.7331C1138.53 85.5968 1140.19 88.4661 1141.81 91.3567C1142.24 92.1225 1142.52 92.6038 1142.98 93.48C1144.32 96.0124 1145.63 98.5603 1146.99 101.084C1150.42 107.474 1154 113.787 1157.67 120.039L1159.65 118.548L1159.58 118.451C1159.06 117.781 1158.17 117.84 1157.62 118.428L1157.6 118.453C1157.15 118.926 1157.29 119.842 1157.8 120.195L1157.73 120.092L1158.26 118.191L1158.2 118.217C1158.75 118.661 1159.32 119.11 1159.88 119.561C1159.84 119.998 1160.09 119.355 1160.21 119.175C1160.4 118.885 1160.59 118.594 1160.78 118.303C1161.14 117.767 1161.5 117.235 1161.86 116.703C1162.62 115.584 1163.4 114.477 1164.17 113.369C1165.7 111.187 1167.24 109.016 1168.76 106.837C1171.81 102.461 1174.78 98.03 1177.4 93.3807C1177.61 93.0084 1177.47 92.5322 1177.26 92.2016C1174.68 88.1797 1172.13 84.1294 1169.6 80.0778C1168.37 78.1016 1167.1 76.1466 1165.86 74.1761C1164.54 72.1163 1163.29 70.0068 1161.79 68.079C1161.37 67.5324 1160.38 68.0187 1160.69 68.6935L1160.68 68.6963Z" fill="#0F0F0F"/>
<path d="M1191.83 128.2C1192.84 127.009 1193.62 125.66 1194.44 124.335C1195.64 122.397 1196.8 120.441 1197.98 118.494C1200.8 113.825 1203.6 109.15 1206.57 104.58C1208.17 102.103 1209.82 99.6553 1211.58 97.2827C1212.14 96.526 1211.58 95.1639 1210.53 95.3706C1205.39 96.3706 1200.2 97.1971 1195.04 98.091C1192.7 98.4972 1190.34 98.8776 1187.96 98.7095C1185.72 98.5537 1183.49 98.2047 1181.25 98.6346C1180.56 98.7662 1180.04 99.3113 1180.11 100.055C1180.52 104.911 1179.14 109.619 1178.12 114.318C1177.02 119.371 1176.15 124.478 1175.65 129.633C1175.58 130.416 1176.22 131.373 1177.13 131.181C1181.85 130.199 1186.69 129.681 1191.48 129.175C1193.23 128.99 1192.95 126.254 1191.19 126.446C1186.4 126.952 1181.56 127.494 1176.85 128.491L1178.33 130.039C1178.81 124.765 1179.71 119.535 1180.81 114.363C1181.84 109.543 1183.14 104.754 1182.68 99.7802L1181.53 101.2C1183.77 100.768 1185.97 101.172 1188.21 101.277C1190.62 101.385 1192.96 101.013 1195.31 100.587C1200.46 99.654 1205.65 98.7788 1210.78 97.7301L1209.73 95.818C1203.58 104.243 1198.33 113.42 1193.36 122.573C1192.46 124.216 1191.5 125.837 1190.74 127.551C1190.44 128.224 1191.36 128.756 1191.83 128.2Z" fill="#0F0F0F"/>
<path d="M1176.2 56.148C1172.38 59.1906 1173.2 65.7583 1174.21 69.9679C1175.66 75.9855 1178.64 82.0027 1183.14 86.3244C1185.13 88.2409 1187.58 89.7795 1190.32 90.3536C1193.05 90.9276 1196.35 90.4344 1198.58 88.706C1201.22 86.661 1201.5 83.1309 1200.91 80.0807C1200.23 76.5446 1198.75 73.1997 1197.13 70.0041C1195.14 66.1219 1193.07 62.0317 1189.97 58.9185C1188.63 57.5801 1186.9 56.5872 1185.18 55.8277C1183.23 54.9608 1180.93 54.2592 1178.77 54.5506C1177.71 54.6943 1176.73 55.0704 1175.94 55.8056C1174.96 56.7114 1175.75 58.6448 1177.17 58.0065C1180.38 56.5707 1184.35 58.325 1186.97 60.2698C1190.03 62.538 1191.94 66.5586 1193.59 69.614C1195.11 72.451 1196.54 75.379 1197.49 78.4687C1197.91 79.86 1198.21 81.2993 1198.24 82.7598C1198.27 83.752 1198.01 84.9716 1197.54 85.6458C1196.34 87.3519 1193.57 87.9001 1191.61 87.6859C1189.38 87.4415 1187.46 86.4001 1185.68 84.9287C1181.55 81.5056 1178.78 76.3071 1177.13 71.2231C1176.26 68.5491 1175.69 65.7739 1175.66 62.9562C1175.63 60.946 1176.03 58.7668 1177.35 57.3233C1177.98 56.6286 1176.93 55.5727 1176.2 56.1508L1176.2 56.148Z" fill="#0F0F0F"/>
<path d="M1203.46 84.8295C1202.89 87.1567 1201.83 89.6583 1199.85 91.1176C1198.07 92.4292 1195.75 92.7655 1193.6 92.5344C1187.67 91.8916 1182.15 87.6796 1178.57 83.1146C1174.16 77.4921 1171.88 70.188 1172.62 63.0474C1172.93 60.0085 1173.78 56.8685 1175.99 54.6405C1177.25 53.3785 1178.9 52.4812 1180.51 52.4698C1182.25 52.4564 1183.99 53.3048 1185.5 54.1216C1186.88 54.8719 1188.16 55.8005 1189.35 56.8344C1192.35 59.4545 1194.6 62.82 1196 66.5453C1196.63 68.2214 1199.21 67.2068 1198.58 65.5307C1196.05 58.6988 1190.42 52.3687 1183.29 50.2195C1177.04 48.3407 1172.15 53.5412 1170.64 59.1767C1168.55 67.0161 1170.65 75.9483 1175.08 82.5974C1178.91 88.3479 1185.22 93.3896 1192.2 94.4612C1195.08 94.903 1198.14 94.5857 1200.58 92.8831C1203.26 91.0115 1204.37 88.0307 1204.45 84.863C1204.46 84.2617 1203.57 84.3278 1203.45 84.8395L1203.46 84.8295Z" fill="#0F0F0F"/>
<path d="M1239.82 23.6075C1242.94 21.9349 1246.23 20.5954 1249.23 18.6944L1247.75 18.4818C1251.41 24.4732 1254.92 30.5681 1258.17 36.7932C1259.79 39.8699 1261.34 42.9791 1262.84 46.1081C1263.22 46.9035 1263.6 47.699 1263.97 48.4902C1264.07 48.6998 1264.41 49.1873 1264.39 49.3662C1264.39 49.5766 1264.04 49.8951 1263.91 50.0045C1263.52 50.3471 1262.99 50.4826 1262.53 50.7117C1261.83 51.0681 1261.15 51.4675 1260.49 51.8929C1259.2 52.7223 1258.06 53.849 1256.71 54.5621C1255.21 55.3587 1253.71 56.1553 1252.22 56.9706C1249.3 58.5743 1246.41 60.247 1243.61 62.0447C1242.49 62.7578 1241.16 63.4109 1240.34 64.4795C1240.04 64.8685 1239.81 65.3423 1239.45 65.688C1239 66.1418 1238.34 66.4984 1237.79 66.8787C1234.98 68.8353 1232.1 70.6884 1229.18 72.4797C1222.58 76.5471 1215.81 80.3185 1209.15 84.3055C1207.99 85.004 1209.27 86.697 1210.43 86.0013C1216.55 82.3303 1222.78 78.839 1228.88 75.1349C1231.97 73.2588 1235.02 71.3309 1238.01 69.2966C1239.12 68.5348 1240.48 67.8289 1241.31 66.7404C1241.62 66.3386 1241.86 65.8448 1242.22 65.4863C1242.71 65.004 1243.5 64.621 1244.09 64.2338C1247.03 62.3139 1250.06 60.5361 1253.14 58.8461C1254.74 57.9685 1256.36 57.1196 1257.97 56.2536C1259.32 55.5333 1260.47 54.4038 1261.75 53.5672C1263.54 52.4188 1267.5 51.2854 1266.24 48.3828C1264.82 45.0668 1263.13 41.835 1261.49 38.6279C1257.76 31.3218 1253.7 24.1869 1249.43 17.1924C1249.11 16.6793 1248.39 16.6977 1247.95 16.9798C1245.11 18.7817 1241.99 20.0391 1239.03 21.6154C1237.85 22.2465 1238.61 24.2255 1239.81 23.5888L1239.82 23.6075Z" fill="#0F0F0F"/>
<path d="M1199.3 45.6599C1210.89 39.1771 1222.56 32.8465 1234.26 26.5777C1235.45 25.9466 1234.69 23.9677 1233.49 24.6044C1221.62 30.9652 1209.79 37.3921 1198.03 43.9641C1196.85 44.6267 1198.13 46.3125 1199.3 45.6599Z" fill="#0F0F0F"/>
<path d="M1184.2 2.06086C1187.08 8.92352 1190.59 15.4938 1194.08 22.0582C1195.82 25.3189 1197.52 28.5937 1199.3 31.8303C1201.07 35.0669 1202.62 38.1302 1204.93 40.8333C1206.02 42.1186 1208.14 40.5499 1207.04 39.2503C1204.78 36.5761 1203.15 33.4564 1201.46 30.4108C1199.65 27.1683 1197.81 23.9427 1196.03 20.6889C1192.51 14.2432 1189.15 7.70387 1185.32 1.43797C1184.94 0.808541 1183.93 1.39633 1184.21 2.05804L1184.2 2.06086Z" fill="#0F0F0F"/>
<path d="M1189.74 3.67903L1189.8 3.688C1189.99 3.72211 1190.22 3.60476 1190.29 3.42051C1190.43 3.04201 1190.3 2.69475 1189.94 2.52353C1189.76 2.43792 1189.49 2.45916 1189.33 2.59702C1188.3 3.48106 1189.65 5.17026 1190.11 6.08364C1190.92 7.69642 1191.72 9.3192 1192.5 10.9504C1194.08 14.2144 1195.62 17.4953 1197.2 20.7493C1200.36 27.2215 1203.75 33.6078 1208.16 39.3332C1209.1 40.5603 1211.04 39.1208 1210.09 37.8865C1205.97 32.5222 1202.71 26.5805 1199.65 20.5671C1198.12 17.5496 1196.64 14.4953 1195.08 11.4863C1194.32 10.0126 1193.55 8.54184 1192.74 7.08795C1192.36 6.40983 1191.97 5.72734 1191.58 5.05204C1191.37 4.68709 1191.15 4.33495 1190.92 3.97564C1190.8 3.77728 1190.67 3.57174 1190.54 3.37337C1190.33 2.85672 1190 2.89897 1189.51 3.51295L1189.51 2.95607L1189.47 3.0045C1189.28 3.26101 1189.43 3.6198 1189.74 3.67903Z" fill="#0F0F0F"/>
<path d="M1185.33 2.66072C1186.25 1.44532 1187.11 0.255279 1188.15 -0.866317C1189.3 -2.11322 1190.47 -3.34141 1191.67 -4.535C1194.01 -6.83532 1196.5 -8.99007 1199.05 -11.0428C1204.26 -15.2421 1209.78 -19.0185 1215.3 -22.7849C1216.69 -23.7368 1215.12 -25.844 1213.73 -24.8849C1207.99 -20.9166 1202.25 -16.9454 1196.86 -12.4953C1194.22 -10.3057 1191.67 -7.9967 1189.26 -5.54365C1188.04 -4.3029 1186.86 -3.02756 1185.77 -1.67148C1184.85 -0.531935 1183.95 0.782392 1184.09 2.30362C1184.14 2.90381 1184.96 3.13658 1185.32 2.66354L1185.33 2.66072Z" fill="#0F0F0F"/>
<path d="M1189.78 3.67209C1194.02 0.60493 1198 -2.86049 1202.1 -6.13037C1206.22 -9.41025 1210.39 -12.5981 1214.73 -15.563C1216.18 -16.5546 1214.51 -18.82 1213.09 -17.7522C1208.86 -14.539 1204.62 -11.3186 1200.5 -7.95286C1196.38 -4.58713 1192.34 -1.2109 1188.79 2.66665C1188.24 3.27447 1189.14 4.13767 1189.78 3.67926L1189.78 3.67209Z" fill="#0F0F0F"/>
<path d="M1213.3 -16.418C1214.7 -12.866 1216.42 -9.46075 1218.12 -6.04426C1219.82 -2.62777 1221.51 0.791535 1223.21 4.20802C1226.6 11.0338 1229.89 17.9262 1233.4 24.6898C1234.36 26.5483 1235.37 28.39 1236.47 30.1678C1237.41 31.6712 1238.49 32.9765 1240.04 33.8766C1240.55 34.1719 1241.2 33.7937 1241.43 33.3299C1242.15 31.8641 1241.67 30.2949 1241.13 28.8613C1240.37 26.8967 1239.56 24.9546 1238.73 23.0253C1237.08 19.1596 1235.36 15.322 1233.56 11.5227C1229.97 3.91394 1226.15 -3.59025 1222.3 -11.0732C1220.14 -15.2757 1218 -19.4895 1215.87 -23.7061C1215.13 -25.1781 1212.72 -24.2212 1213.48 -22.7676C1221.06 -8.44959 1228.59 5.91964 1235.23 20.707C1236.17 22.7988 1237.09 24.9062 1237.98 27.0148C1238.39 27.9966 1238.83 28.9772 1239.23 29.9618C1239.57 30.7742 1239.93 31.634 1239.52 32.4833L1240.91 31.9365C1239.56 31.165 1238.7 29.7724 1237.9 28.4789C1236.93 26.8894 1236.03 25.2474 1235.17 23.5957C1233.48 20.3281 1231.86 17.0123 1230.22 13.715C1226.91 7.11882 1223.59 0.528282 1220.28 -6.07225C1218.42 -9.77321 1216.61 -13.5182 1214.45 -17.0522C1214.06 -17.6931 1213.06 -17.091 1213.32 -16.4165L1213.3 -16.418Z" fill="#0F0F0F"/>
<path d="M1211.28 57.4543C1218.61 54.6914 1225.65 51.3039 1232.47 47.4597C1235.86 45.5482 1239.17 43.4774 1242.42 41.3245C1244.07 40.2296 1245.68 39.0901 1247.29 37.9291C1248.89 36.7681 1250.49 35.6958 1251.76 34.2592C1252.28 33.6655 1251.55 32.6201 1250.81 32.9834C1249.09 33.8431 1247.57 35.102 1246 36.2145C1244.43 37.3271 1242.96 38.3372 1241.42 39.3726C1238.19 41.5514 1234.89 43.6195 1231.53 45.5927C1224.84 49.5378 1217.88 53.0476 1210.8 56.2372C1210.03 56.5803 1210.48 57.76 1211.27 57.4571L1211.28 57.4543Z" fill="#0F0F0F"/>
<path d="M1217.4 61.7274C1222.97 58.1488 1228.66 54.7371 1234.27 51.2104C1237.07 49.447 1239.88 47.7123 1242.69 45.9632C1244.09 45.0887 1245.5 44.2142 1246.91 43.3469C1248.23 42.5305 1249.74 41.787 1250.73 40.5605C1251.07 40.1475 1250.71 39.375 1250.15 39.4903C1248.64 39.8087 1247.33 40.744 1246.04 41.5419C1244.63 42.4092 1243.23 43.2766 1241.82 44.1511C1238.96 45.9298 1236.12 47.756 1233.29 49.5722C1227.68 53.1848 1222.22 57.0161 1216.71 60.7868C1216.09 61.2152 1216.79 62.1258 1217.41 61.7218L1217.4 61.7274Z" fill="#0F0F0F"/>
<path d="M1145.5 88.3018C1147.66 92.8536 1150 97.335 1152.62 101.641C1153.74 103.479 1154.8 105.588 1156.33 107.124C1156.85 107.648 1157.67 108.335 1158.46 108.357C1158.95 108.373 1159.41 108.141 1159.32 107.597C1159.28 107.323 1158.97 107.261 1158.79 107.442C1158.29 107.934 1156.83 106.348 1156.57 106.042C1156.02 105.397 1155.57 104.671 1155.11 103.965C1154.02 102.292 1152.96 100.588 1151.92 98.8746C1149.79 95.3609 1147.83 91.7609 1146.02 88.0789C1145.86 87.7601 1145.35 87.9558 1145.5 88.2846L1145.5 88.3018Z" fill="#0F0F0F"/>
<path d="M1150.03 90.4246C1151.35 93.5996 1152.88 96.6829 1154.65 99.6317C1155.5 101.04 1156.37 102.461 1157.39 103.75C1158.14 104.69 1159.14 105.946 1160.36 106.221C1160.63 106.28 1160.84 105.915 1160.66 105.702C1160.26 105.223 1159.7 104.896 1159.24 104.464C1158.68 103.939 1158.19 103.345 1157.73 102.722C1156.83 101.517 1156.02 100.236 1155.24 98.9611C1153.5 96.1399 1151.96 93.2083 1150.63 90.1806C1150.46 89.7988 1149.85 90.0283 1150.02 90.4174L1150.03 90.4246Z" fill="#0F0F0F"/>
<path d="M1156.04 95.6062C1156.75 97.0365 1157.51 98.4443 1158.33 99.8023C1158.75 100.484 1159.18 101.152 1159.63 101.812C1160.05 102.424 1160.48 103.256 1161.11 103.672C1161.35 103.833 1161.66 103.621 1161.57 103.336C1161.34 102.669 1160.75 102.065 1160.35 101.496C1159.88 100.849 1159.44 100.186 1159.01 99.5202C1158.14 98.1791 1157.34 96.8026 1156.62 95.3807C1156.44 95.0289 1155.86 95.2472 1156.04 95.609L1156.04 95.6062Z" fill="#0F0F0F"/>
<path d="M1157.68 92.8863C1158.53 94.299 1159.37 95.7244 1160.19 97.1583C1160.6 97.8767 1161 98.595 1161.41 99.3134C1161.61 99.674 1161.81 100.035 1162.01 100.395C1162.19 100.73 1162.34 101.069 1162.63 101.32C1162.81 101.481 1163.13 101.306 1163.08 101.066C1162.97 100.364 1162.41 99.6661 1162.06 99.0569C1161.64 98.3127 1161.21 97.5713 1160.77 96.8398C1159.91 95.3957 1159.03 93.96 1158.14 92.5399C1157.94 92.228 1157.49 92.5688 1157.68 92.8835L1157.68 92.8863Z" fill="#0F0F0F"/>
<path d="M1181.82 124.231C1183.27 124.15 1184.71 124.038 1186.15 123.869C1186.87 123.785 1187.59 123.693 1188.31 123.585C1188.67 123.527 1189.03 123.476 1189.39 123.411C1189.7 123.346 1190.03 123.309 1190.28 123.125C1190.51 122.972 1190.38 122.666 1190.15 122.604C1189.83 122.524 1189.47 122.616 1189.15 122.667C1188.79 122.725 1188.44 122.783 1188.08 122.84C1187.38 122.948 1186.69 123.052 1186 123.142C1184.58 123.327 1183.17 123.477 1181.75 123.578C1181.32 123.613 1181.4 124.253 1181.82 124.231Z" fill="#0F0F0F"/>
<path d="M1183.35 122.105C1184.38 121.983 1185.41 121.857 1186.45 121.742C1186.95 121.684 1187.46 121.625 1187.96 121.56C1188.47 121.494 1188.99 121.479 1189.48 121.329C1189.7 121.259 1189.67 120.882 1189.43 120.867C1188.94 120.837 1188.45 120.939 1187.97 120.996C1187.44 121.063 1186.92 121.127 1186.39 121.193C1185.35 121.326 1184.33 121.448 1183.29 121.581C1182.95 121.623 1183.01 122.147 1183.35 122.105Z" fill="#0F0F0F"/>
<path d="M1185.53 120.32C1186.21 120.16 1186.91 120.053 1187.61 119.994C1187.95 119.966 1188.29 119.956 1188.64 119.962C1188.98 119.968 1189.35 120.005 1189.7 119.909C1189.95 119.834 1189.92 119.485 1189.71 119.383C1189.37 119.225 1189 119.233 1188.63 119.235C1188.27 119.237 1187.89 119.252 1187.53 119.288C1186.79 119.361 1186.09 119.498 1185.38 119.708C1185.05 119.806 1185.19 120.39 1185.53 120.313L1185.53 120.32Z" fill="#0F0F0F"/>
<path d="M1137.94 35.8768C1139.15 34.4213 1140.42 32.9948 1141.72 31.6085C1142.37 30.9154 1143.02 30.2266 1143.69 29.5493C1144.01 29.2349 1144.32 28.9233 1144.63 28.6089C1144.95 28.2945 1145.35 27.9778 1145.55 27.5524C1145.67 27.2997 1145.39 27.0116 1145.13 27.1203C1144.7 27.3065 1144.38 27.6896 1144.04 28.0125C1143.74 28.3041 1143.45 28.6001 1143.16 28.8988C1142.47 29.5989 1141.79 30.3133 1141.13 31.0365C1139.83 32.4743 1138.6 33.9498 1137.41 35.4727C1137.15 35.806 1137.65 36.2043 1137.92 35.8753L1137.94 35.8768Z" fill="#0F0F0F"/>
<path d="M1138.77 38.7209C1138.69 39.0696 1138.95 39.4149 1139.32 39.41C1139.82 39.4031 1140.1 38.7707 1140.35 38.423C1141.16 37.3257 1142.03 36.2717 1142.96 35.2639C1143.88 34.2561 1144.84 33.2972 1145.86 32.3845C1146.34 31.9537 1146.83 31.5373 1147.34 31.1253C1147.84 30.7133 1148.48 30.3207 1148.85 29.7834C1149.04 29.5197 1148.79 29.186 1148.49 29.29C1147.98 29.4558 1147.56 29.8296 1147.14 30.1492C1146.68 30.5028 1146.24 30.8679 1145.81 31.2446C1144.99 31.9539 1144.21 32.7006 1143.45 33.4703C1142.69 34.2401 1141.93 35.1029 1141.22 35.9603C1140.86 36.409 1140.51 36.862 1140.16 37.3223C1139.99 37.556 1139.82 37.7797 1139.65 38.0206C1139.56 38.1374 1139.48 38.2514 1139.4 38.3755C1139.19 38.5574 1139.24 38.7109 1139.56 38.8603C1139.67 38.3586 1138.89 38.2434 1138.76 38.7408L1138.77 38.7209Z" fill="#0F0F0F"/>
<path d="M1143.18 40.8231C1144.13 39.887 1145.08 38.951 1146.03 38.0077C1146.98 37.0645 1148.04 36.2007 1148.78 35.1144C1148.94 34.8764 1148.67 34.5855 1148.43 34.7544C1147.34 35.4977 1146.44 36.5701 1145.52 37.5049C1144.59 38.4397 1143.6 39.4242 1142.64 40.3902C1142.33 40.7046 1142.87 41.1275 1143.18 40.8231Z" fill="#0F0F0F"/>
<path d="M1147.02 41.7618C1147.56 41.5476 1148.09 41.2831 1148.56 40.9482C1149.03 40.6133 1149.49 40.2354 1149.82 39.7564C1149.97 39.5512 1149.7 39.2231 1149.49 39.4222C1149.09 39.7948 1148.69 40.1746 1148.25 40.4982C1147.81 40.8218 1147.32 41.0693 1146.81 41.2623C1146.49 41.3891 1146.69 41.8914 1147.01 41.7646L1147.02 41.7618Z" fill="#0F0F0F"/>
<path d="M1198.57 51.6209C1199.87 56.2275 1201.23 60.8143 1202.73 65.3591C1203.48 67.6 1204.25 69.8225 1205.05 72.0436C1205.44 73.1241 1205.83 74.2046 1206.24 75.2722C1206.68 76.4475 1207.05 77.7197 1207.66 78.823C1207.83 79.1433 1208.47 79.0929 1208.36 78.6542C1207.83 76.4289 1206.75 74.2418 1205.96 72.0909C1205.13 69.8179 1204.32 67.5337 1203.54 65.2411C1201.97 60.6558 1200.45 56.0607 1199.07 51.4165C1198.97 51.0751 1198.47 51.2796 1198.56 51.6166L1198.57 51.6209Z" fill="#0F0F0F"/>
<path d="M1198.18 57.9549C1199.25 60.5329 1200.26 63.1405 1201.29 65.7353C1202.32 68.3302 1203.19 71.0257 1204.48 73.4847C1204.64 73.7792 1205.05 73.6185 1204.96 73.2959C1204.24 70.6214 1203.01 68.0324 1201.94 65.4789C1200.87 62.9253 1199.73 60.344 1198.61 57.783C1198.5 57.506 1198.06 57.6779 1198.18 57.9549Z" fill="#0F0F0F"/>
<path d="M1198.22 63.5628C1199.02 65.0782 1199.78 66.6177 1200.5 68.1741C1201.22 69.7305 1201.79 71.3604 1202.58 72.8815C1202.72 73.1429 1203.09 72.9963 1203 72.7152C1202.54 71.0745 1201.74 69.5076 1201.02 67.9684C1200.3 66.4291 1199.51 64.8838 1198.69 63.3768C1198.54 63.0967 1198.06 63.2755 1198.22 63.5628Z" fill="#0F0F0F"/>
<path d="M1178.39 69.6117C1179.05 72.6138 1180.36 75.4695 1182.32 77.8568C1183.14 78.8612 1184.08 79.7934 1185.17 80.4803C1186.27 81.1672 1187.64 81.8372 1188.89 81.3225C1189.46 81.0926 1189.41 80.3551 1188.91 80.0885C1187.94 79.5828 1186.86 79.4615 1185.92 78.8515C1184.94 78.2125 1184.08 77.3639 1183.32 76.4687C1181.55 74.3817 1180.32 71.9489 1179.65 69.2961C1179.48 68.5878 1178.23 68.885 1178.39 69.6018L1178.39 69.6117Z" fill="#0F0F0F"/>
<path d="M1208.25 71.0186C1208.52 70.2186 1208.71 69.398 1208.95 68.5921C1209.19 67.7861 1209.46 67.0248 1209.75 66.255C1210.05 65.4852 1210.39 64.73 1210.74 63.9863C1210.92 63.6081 1211.1 63.2227 1211.3 62.846C1211.5 62.4693 1211.73 62.1085 1211.87 61.7128C1211.97 61.4414 1211.63 61.2202 1211.43 61.448C1210.9 62.0589 1210.55 62.8784 1210.18 63.6006C1209.8 64.3727 1209.46 65.1766 1209.15 65.9863C1208.56 67.536 1207.95 69.2157 1207.78 70.8797C1207.76 71.1372 1208.15 71.29 1208.24 71.0143L1208.25 71.0186Z" fill="#0F0F0F"/>
<path d="M1209.04 74.9763C1208.81 75.6133 1208.59 76.2691 1208.32 76.8887C1208.16 77.2485 1208.7 77.4766 1208.87 77.1284C1209.93 75.0076 1210.81 72.7712 1211.76 70.6025C1212.7 68.4338 1213.8 66.2717 1214.52 64.0171C1214.62 63.6871 1214.2 63.4969 1214.03 63.8036C1212.88 65.8708 1212.05 68.1434 1211.11 70.3164C1210.18 72.4895 1209.15 74.6577 1208.32 76.8887L1208.87 77.1284C1209.06 76.4811 1209.32 75.8427 1209.55 75.1985C1209.67 74.8528 1209.15 74.6262 1209.03 74.9719L1209.04 74.9763Z" fill="#0F0F0F"/>
<path d="M1210.39 80.7715C1211.92 77.4811 1213.44 74.1979 1214.97 70.9076C1215.19 70.4394 1215.38 69.9581 1215.6 69.4899C1215.73 69.2245 1215.31 69.0414 1215.18 69.3069C1213.66 72.5901 1212.09 75.863 1210.56 79.1491C1210.34 79.6172 1210.12 80.0898 1209.9 80.558C1209.75 80.8734 1210.25 81.0913 1210.4 80.7758L1210.39 80.7715Z" fill="#0F0F0F"/>
<path d="M1212.88 83.8779C1214.09 81.3901 1215.3 78.9096 1216.53 76.4305C1217.76 73.9515 1219.05 71.4986 1220.16 68.9744C1220.29 68.7018 1219.88 68.5375 1219.74 68.7914C1218.44 71.2256 1217.3 73.7582 1216.1 76.2431C1214.9 78.7281 1213.69 81.2158 1212.47 83.6992C1212.34 83.9575 1212.76 84.1406 1212.88 83.8779Z" fill="#0F0F0F"/>
<path d="M1220.13 79.2592C1221.56 76.7427 1222.72 74.0987 1223.85 71.4343C1224.99 68.77 1226.21 66.1692 1227.51 63.579C1227.63 63.3407 1227.25 63.1092 1227.11 63.3388C1225.59 65.7673 1224.51 68.4778 1223.39 71.1093C1222.28 73.7409 1221.12 76.5067 1219.7 79.0718C1219.54 79.3386 1219.98 79.5231 1220.13 79.2592Z" fill="#0F0F0F"/>
<path d="M1226.31 74.4445C1227.01 72.8942 1227.71 71.3438 1228.41 69.8006C1229.12 68.2574 1229.91 66.7291 1230.46 65.1305C1230.56 64.8348 1230.17 64.6721 1230.02 64.9388C1229.2 66.4197 1228.58 68.0365 1227.91 69.5856C1227.23 71.1346 1226.55 72.7037 1225.86 74.2556C1225.74 74.5455 1226.18 74.7372 1226.3 74.4474L1226.31 74.4445Z" fill="#0F0F0F"/>
<path d="M1230.2 72.5263C1230.76 71.4231 1231.28 70.3068 1231.79 69.1862C1232.04 68.6409 1232.29 68.0956 1232.53 67.5531C1232.8 66.9778 1233.08 66.404 1233.27 65.7982C1233.34 65.5453 1232.99 65.261 1232.83 65.5334C1232.52 66.0526 1232.28 66.6094 1232.03 67.1619C1231.79 67.7144 1231.52 68.3241 1231.27 68.9037C1230.76 70.0459 1230.27 71.1924 1229.81 72.3591C1229.7 72.6233 1230.08 72.7889 1230.21 72.5334L1230.2 72.5263Z" fill="#0F0F0F"/>
<path d="M1233.26 70.8203C1233.77 69.9588 1234.24 69.0842 1234.72 68.2024C1235.19 67.3206 1235.61 66.5201 1236.03 65.668C1236.44 64.8159 1236.93 63.9214 1237.19 62.9896C1237.27 62.7195 1236.87 62.6597 1236.75 62.8637C1236.27 63.724 1235.91 64.6609 1235.48 65.5501C1235.07 66.3893 1234.65 67.217 1234.22 68.0404C1233.76 68.9094 1233.3 69.7783 1232.81 70.6314C1232.66 70.8982 1233.1 71.0827 1233.25 70.8231L1233.26 70.8203Z" fill="#0F0F0F"/>
<path d="M1235.48 70.2572C1235.63 69.9246 1235.76 69.5805 1235.93 69.2522C1236.09 68.9239 1236.25 68.5685 1236.42 68.2231C1236.74 67.5494 1237.05 66.8713 1237.36 66.1889C1237.47 65.929 1237.09 65.7734 1236.96 66.0146C1236.6 66.6752 1236.27 67.3446 1235.94 68.0111C1235.78 68.3393 1235.61 68.6704 1235.45 68.9987C1235.29 69.327 1235.1 69.6693 1234.92 70.0104C1234.75 70.3515 1235.32 70.6099 1235.48 70.2544L1235.48 70.2572Z" fill="#0F0F0F"/>
<path d="M1235.01 70.731C1235.73 70.4463 1235.29 69.3197 1234.57 69.6044C1233.84 69.889 1234.28 71.0156 1235.01 70.731Z" fill="#0F0F0F"/>
<path d="M1210.02 78.7405C1210.57 77.4469 1211.13 76.1676 1211.66 74.8725C1212.2 73.5773 1212.77 72.2924 1213.24 70.9712C1213.35 70.6826 1212.93 70.4968 1212.8 70.7794C1212.21 72.0413 1211.7 73.3595 1211.16 74.6546C1210.63 75.9497 1210.11 77.2536 1209.59 78.5531C1209.47 78.8301 1209.89 79.0131 1210.01 78.7361L1210.02 78.7405Z" fill="#0F0F0F"/>
<path d="M1208.32 73.2711C1209 71.6677 1209.65 70.054 1210.31 68.4375C1210.97 66.821 1211.67 65.2219 1212.26 63.5821C1212.35 63.3207 1211.97 63.148 1211.86 63.4078C1211.15 64.9954 1210.53 66.6293 1209.88 68.2501C1209.23 69.871 1208.57 71.4803 1207.96 73.1142C1207.86 73.3584 1208.22 73.5153 1208.33 73.2754L1208.32 73.2711Z" fill="#0F0F0F"/>
<path d="M1207.52 68.4572C1207.89 66.7387 1208.33 65.0307 1208.96 63.3868C1209.58 61.7429 1210.35 60.2058 1211.17 58.6734C1211.3 58.4423 1210.93 58.2152 1210.77 58.4332C1209.76 59.9072 1209 61.5245 1208.37 63.2027C1207.75 64.881 1207.29 66.6089 1207.07 68.3928C1207.04 68.6804 1207.45 68.7416 1207.51 68.46L1207.52 68.4572Z" fill="#0F0F0F"/>
<path d="M1211.99 83.1994C1213.39 78.9977 1215.2 74.9747 1217.18 71.0158C1217.31 70.7675 1216.92 70.6119 1216.79 70.8458C1214.6 74.6889 1212.94 78.8188 1211.63 83.0353C1211.55 83.2811 1211.91 83.4451 1212 83.1965L1211.99 83.1994Z" fill="#0F0F0F"/>
<path d="M1216.95 81.2592C1217.62 79.5912 1218.35 77.9609 1219.08 76.3234C1219.81 74.6859 1220.59 73.063 1221.17 71.3629C1221.25 71.1144 1220.9 70.9475 1220.79 71.1973C1220.08 72.8436 1219.38 74.4913 1218.65 76.136C1217.92 77.7807 1217.19 79.411 1216.56 81.0892C1216.47 81.3406 1216.85 81.5134 1216.95 81.2592Z" fill="#0F0F0F"/>
<path d="M1223.06 76.9811C1223.95 75.4963 1224.65 73.8873 1225.41 72.3287C1226.18 70.7702 1227.07 69.1781 1227.7 67.5313C1227.81 67.2371 1227.41 67.08 1227.26 67.3396C1226.37 68.8315 1225.69 70.4736 1224.94 72.0365C1224.18 73.5995 1223.34 75.1547 1222.72 76.7814C1222.65 76.9857 1222.94 77.1923 1223.07 76.9855L1223.06 76.9811Z" fill="#0F0F0F"/>
</svg>
